<?xml version="1.0" encoding="utf-8"?>
<!-- Generator: Adobe Illustrator 25.1.0, SVG Export Plug-In . SVG Version: 6.00 Build 0)  -->
<svg version="1.1" id="Camada_1" xmlns="http://www.w3.org/2000/svg" xmlns:xlink="http://www.w3.org/1999/xlink" x="0px" y="0px"
	 viewBox="0 0 348.22 348.15" style="enable-background:new 0 0 348.22 348.15;" xml:space="preserve">
<style type="text/css">
	.st0{display:none;fill:#FAD18B;}
	.st1{display:none;fill:#FAC51A;}
	.st2{display:none;fill:#FAEAD1;}
	.st3{display:none;fill:#F6E800;stroke:#004F97;stroke-width:0.8504;stroke-miterlimit:10;}
	.st4{display:none;}
	.st5{display:inline;}
	.st6{fill:#EE9EC1;}
	.st7{fill:#BF639E;}
	.st8{fill:#6E408F;}
	.st9{fill:#FFFFFF;}
	.st10{fill:#1C598A;}
	.st11{fill:none;stroke:#FFFFFF;stroke-width:19.8425;stroke-miterlimit:10;}
	.st12{display:inline;fill:none;stroke:#FFFFFF;stroke-width:19.8425;stroke-miterlimit:10;}
	.st13{fill:#693E87;}
</style>
<rect x="-640.31" y="-640.39" class="st0" width="542.98" height="542.98"/>
<rect x="-640.31" y="-97.41" class="st1" width="542.98" height="542.98"/>
<rect x="-97.33" y="-640.39" class="st2" width="542.88" height="542.98"/>
<rect x="-97.33" y="-97.41" class="st3" width="542.98" height="542.98"/>
<g class="st4">
	<g class="st5">
		<g id="XMLID_4_">
			<g>
				<polygon class="st6" points="-206.48,-435.33 -208.72,-406.22 -208.75,-406.22 -228.1,-420.47 -228.1,-420.5 -249.58,-436.3 
					-245.29,-454.9 -227.72,-460.64 				"/>
				<polygon class="st6" points="-208.72,-406.22 -209.2,-400.23 -209.44,-375.5 -221.01,-352.3 -233.51,-347.9 -247.04,-362.48 
					-233.14,-386.98 -228.1,-420.47 -208.75,-406.22 				"/>
				<polygon class="st6" points="-248.25,-497.77 -227.72,-460.64 -245.29,-454.9 -249.58,-436.3 -281.36,-435.33 -295.21,-451.6 
					-283.63,-478.02 				"/>
				<polygon class="st6" points="-228.1,-420.5 -228.1,-420.47 -233.14,-386.98 -247.04,-362.48 -260.58,-377.05 -264.91,-391.98 
					-249.58,-436.3 				"/>
				<polygon class="st7" points="-233.51,-347.9 -265.59,-336.6 -272.2,-326.47 -272.32,-326.59 -290.98,-346.5 -278.25,-377.22 
					-260.58,-377.05 -247.04,-362.48 				"/>
				<polygon class="st6" points="-248.25,-497.77 -283.63,-478.02 -311,-483.65 -307.24,-504.59 -303.83,-516.94 -279.99,-514.2 
									"/>
				<polygon class="st7" points="-249.58,-436.3 -264.91,-391.98 -260.58,-377.05 -278.25,-377.22 -293.83,-377.37 -310.63,-386.13 
					-292.26,-410.71 -302.65,-432.05 -281.36,-435.33 				"/>
				<polygon class="st8" points="-272.2,-326.47 -280.58,-313.64 -319.48,-313.89 -319.46,-315.22 -319.3,-332.85 -290.98,-346.5 
					-272.32,-326.59 				"/>
				<polygon class="st8" points="-278.25,-377.22 -290.98,-346.5 -319.3,-332.85 -319.25,-337.82 -309.01,-367.94 -293.83,-377.37 
									"/>
				<polygon class="st7" points="-281.36,-435.33 -302.65,-432.05 -307.47,-431.3 -328.88,-438.65 -316.02,-457.56 -317.44,-461.14 
					-295.21,-451.6 				"/>
				<polygon class="st7" points="-283.63,-478.02 -295.21,-451.6 -317.44,-461.14 -317.46,-461.14 -326.46,-483.8 -311,-483.65 				
					"/>
				<path class="st8" d="M-302.65-432.05l10.39,21.34l-18.37,24.58l-1.3-0.69l-8.17-4.24l-19.69,0.88l-13.79-7.49
					c0,0,3.04-22.36,3.34-23.07c0.3-0.74-8.61-12.11-8.61-12.11l7.93-25.04l22.03,19.24l21.41,7.35L-302.65-432.05z"/>
				<polygon class="st8" points="-293.83,-377.37 -309.01,-367.94 -331.04,-354.24 -343.44,-337.28 -354.75,-372.57 
					-319.72,-378.98 -311.93,-386.82 -310.63,-386.13 				"/>
				<path class="st6" d="M-303.83-516.94l-3.41,12.35l-37.97-7.72l-4.9-29.44c8.8,0.08,17.15,0.16,17.59,0.17
					C-331.63-541.58-303.83-516.94-303.83-516.94z"/>
				<polygon class="st7" points="-307.24,-504.59 -311,-483.65 -326.46,-483.8 -344.86,-483.98 -360.05,-471.59 -359.86,-490.94 
					-345.21,-512.31 				"/>
				<polygon class="st8" points="-331.04,-354.24 -309.01,-367.94 -319.25,-337.82 -319.3,-332.85 -319.46,-315.22 -319.48,-313.89 
					-319.97,-313.89 -326.58,-298.45 -340.21,-298.93 -365.56,-331.82 -343.44,-337.28 				"/>
				<polygon class="st8" points="-311.93,-386.82 -319.72,-378.98 -354.75,-372.57 -389.21,-374.08 -380.8,-390.58 -353.57,-397.67 
					-339.79,-390.19 -320.09,-391.06 				"/>
				<polygon class="st7" points="-317.44,-461.14 -316.02,-457.56 -328.88,-438.65 -350.91,-457.89 -359.1,-470.17 -360.05,-471.59 
					-344.86,-483.98 -326.46,-483.8 -317.46,-461.14 				"/>
				<polygon class="st8" points="-354.75,-372.57 -343.44,-337.28 -365.56,-331.82 -395.63,-337.78 -393.09,-366.5 -389.21,-374.08 
									"/>
				<path class="st6" d="M-350.11-541.75l4.9,29.44l-14.65,21.37l-28.89-35.05l18.02-15.96
					C-370.73-541.95-360.14-541.85-350.11-541.75z"/>
				<path class="st8" d="M-358.84-432.85c0,0,8.91,11.37,8.61,12.11c-0.3,0.71-3.34,23.07-3.34,23.07l-27.22,7.1l-16.44-7.51
					l3.8-43.24L-358.84-432.85z"/>
				<polygon class="st8" points="-359.1,-470.17 -350.91,-457.89 -358.84,-432.85 -393.44,-441.34 -395.44,-458.31 				"/>
				<path class="st7" d="M-360.05-471.59l0.94,1.43l-36.34,11.86l-1.14-9.61l-13.43-18.83c0,0,22.09-2.3,23.6-3.02
					C-384.91-490.47-360.05-471.59-360.05-471.59z"/>
				<path class="st6" d="M-359.86-490.94l-0.18,19.35c0,0-24.86-18.88-26.37-18.18c-1.51,0.72-23.6,3.02-23.6,3.02l-9.62-21.6
					l11.37-25.03l19.52,7.39L-359.86-490.94z"/>
				<polygon class="st8" points="-380.8,-390.58 -389.21,-374.08 -393.09,-366.5 -395.63,-337.78 -414.96,-341.59 -425.8,-361.05 
					-433.02,-387.29 -411,-382.59 -397.24,-398.09 				"/>
				<polygon class="st7" points="-395.44,-458.31 -393.44,-441.34 -415.91,-429.73 -444.58,-456.8 -441.1,-478.1 -422.87,-480.44 
					-410.01,-486.75 -396.57,-467.92 				"/>
				<polygon class="st8" points="-393.44,-441.34 -397.24,-398.09 -411,-382.59 -433.02,-387.29 -435.13,-408.76 -415.91,-429.73 
									"/>
				<polygon class="st6" points="-408.26,-533.39 -419.63,-508.35 -410.01,-486.75 -422.87,-480.44 -441.1,-478.1 -468.38,-494.13 
					-454.14,-518.73 -420.85,-538.14 				"/>
				<polygon class="st7" points="-415.91,-429.73 -435.13,-408.76 -450.77,-417.8 -461.65,-449.96 -444.58,-456.8 				"/>
				<polygon class="st7" points="-433.02,-387.29 -425.8,-361.05 -438.09,-356.17 -465.74,-358.53 -449.75,-380.81 -447.43,-391.74 
					-447.28,-392.3 				"/>
				<polygon class="st7" points="-435.13,-408.76 -433.02,-387.29 -447.28,-392.3 -452.94,-394.31 -465.41,-393.1 -450.77,-417.8 
									"/>
				<polygon class="st6" points="-441.1,-478.1 -444.58,-456.8 -461.65,-449.96 -477.37,-426.8 -472.07,-457.06 -468.38,-494.13 
									"/>
				<polygon class="st6" points="-452.94,-394.31 -447.28,-392.3 -447.43,-391.74 -449.75,-380.81 -465.74,-358.53 -498.89,-361.39 
					-476.53,-392.02 -465.41,-393.1 				"/>
				<polygon class="st7" points="-461.65,-449.96 -450.77,-417.8 -465.41,-393.1 -476.53,-392.02 -477.37,-426.8 				"/>
				<polygon class="st6" points="-468.38,-494.13 -472.07,-457.06 -499.01,-459.3 -500.59,-494.44 				"/>
				<polygon class="st6" points="-472.07,-457.06 -477.37,-426.8 -495.03,-420.18 -512.84,-436.89 -499.01,-459.3 				"/>
				<polygon class="st6" points="-477.37,-426.8 -476.53,-392.02 -503.76,-401.38 -495.03,-420.18 				"/>
				<polygon class="st6" points="-476.53,-392.02 -498.89,-361.39 -534.85,-403.69 -503.76,-401.38 				"/>
				<polygon class="st6" points="-495.03,-420.18 -503.76,-401.38 -534.85,-403.69 -534.34,-457.12 -512.84,-436.89 				"/>
				<polygon class="st6" points="-500.59,-494.44 -499.01,-459.3 -512.84,-436.89 -534.34,-457.12 				"/>
			</g>
		</g>
		<g id="Rede_Neural_6_">
			<g>
				<circle class="st9" cx="-313.76" cy="-360.11" r="14.22"/>
			</g>
			<g>
				<circle class="st9" cx="-278.54" cy="-413.55" r="14.22"/>
			</g>
			<g>
				<circle class="st9" cx="-376.23" cy="-362.96" r="14.22"/>
			</g>
			<g>
				<circle class="st9" cx="-341.01" cy="-416.4" r="14.22"/>
			</g>
			<g>
				<circle class="st9" cx="-305.78" cy="-469.84" r="14.22"/>
			</g>
			<g>
				<circle class="st9" cx="-447.6" cy="-449.93" r="14.22"/>
			</g>
			<g>
				<circle class="st9" cx="-421.09" cy="-392.53" r="14.22"/>
			</g>
			<g>
				<circle class="st9" cx="-385.86" cy="-445.97" r="14.22"/>
			</g>
			<g>
				<circle class="st9" cx="-412.38" cy="-503.39" r="14.22"/>
			</g>
			<g>
				<circle class="st9" cx="-351.45" cy="-499.95" r="14.22"/>
			</g>
			<g>
				<g>
					<line class="st9" x1="-421.09" y1="-392.53" x2="-447.6" y2="-449.93"/>
					
						<rect x="-437.7" y="-452.85" transform="matrix(0.9079 -0.4192 0.4192 0.9079 136.5776 -220.8842)" class="st9" width="6.72" height="63.23"/>
				</g>
				<g>
					<line class="st9" x1="-385.86" y1="-445.97" x2="-412.37" y2="-503.38"/>
					
						<rect x="-402.48" y="-506.29" transform="matrix(0.9079 -0.4192 0.4192 0.9079 162.2258 -211.0388)" class="st9" width="6.72" height="63.23"/>
				</g>
				<g>
					<line class="st9" x1="-350.64" y1="-499.41" x2="-341.01" y2="-416.4"/>
					
						<rect x="-349.18" y="-499.69" transform="matrix(0.9933 -0.1152 0.1152 0.9933 50.4568 -42.8953)" class="st9" width="6.72" height="83.57"/>
				</g>
				<g>
					<line class="st9" x1="-305.78" y1="-469.84" x2="-278.54" y2="-413.55"/>
					
						<rect x="-295.52" y="-472.96" transform="matrix(0.9001 -0.4356 0.4356 0.9001 163.2408 -171.3923)" class="st9" width="6.72" height="62.53"/>
				</g>
				<g>
					<line class="st9" x1="-313.76" y1="-360.11" x2="-341.01" y2="-416.4"/>
					
						<rect x="-330.75" y="-419.52" transform="matrix(0.9001 -0.4356 0.4356 0.9001 136.4401 -181.3995)" class="st9" width="6.72" height="62.53"/>
				</g>
				<g>
					<line class="st9" x1="-376.23" y1="-362.96" x2="-421.09" y2="-392.53"/>
					
						<rect x="-402.02" y="-404.61" transform="matrix(0.5504 -0.8349 0.8349 0.5504 136.1362 -502.6944)" class="st9" width="6.72" height="53.73"/>
				</g>
				<g>
					<line class="st9" x1="-341.01" y1="-416.4" x2="-385.86" y2="-445.97"/>
					
						<rect x="-366.79" y="-458.05" transform="matrix(0.5504 -0.8349 0.8349 0.5504 196.5941 -497.3107)" class="st9" width="6.72" height="53.72"/>
				</g>
				<g>
					<line class="st9" x1="-385.86" y1="-445.97" x2="-448.97" y2="-450.84"/>
					
						<rect x="-420.78" y="-480.05" transform="matrix(0.077 -0.997 0.997 0.077 61.7858 -830.0709)" class="st9" width="6.72" height="63.3"/>
				</g>
				<g>
					<line class="st9" x1="-421.09" y1="-392.53" x2="-341.01" y2="-416.4"/>
					
						<rect x="-422.83" y="-407.82" transform="matrix(0.9583 -0.2857 0.2857 0.9583 99.6693 -125.7178)" class="st9" width="83.57" height="6.72"/>
				</g>
				<g>
					<line class="st9" x1="-313.76" y1="-360.11" x2="-376.23" y2="-362.96"/>
					
						<rect x="-348.36" y="-392.8" transform="matrix(0.0456 -0.999 0.999 0.0456 31.8763 -689.7078)" class="st9" width="6.72" height="62.53"/>
				</g>
				<g>
					<line class="st9" x1="-279.47" y1="-414.17" x2="-341.01" y2="-416.4"/>
					
						<rect x="-313.6" y="-446.07" transform="matrix(0.0362 -0.9993 0.9993 0.0362 116.0129 -710.2739)" class="st9" width="6.72" height="61.58"/>
				</g>
				<g>
					<line class="st9" x1="-351.77" y1="-500.16" x2="-412.37" y2="-503.38"/>
					
						<rect x="-385.43" y="-532.11" transform="matrix(0.053 -0.9986 0.9986 0.053 139.2368 -856.714)" class="st9" width="6.72" height="60.68"/>
				</g>
				<g>
					<line class="st9" x1="-376.23" y1="-362.96" x2="-385.86" y2="-445.97"/>
					
						<rect x="-384.41" y="-446.25" transform="matrix(0.9933 -0.1152 0.1152 0.9933 44.065 -46.5986)" class="st9" width="6.72" height="83.57"/>
				</g>
				<g>
					<line class="st9" x1="-305.78" y1="-469.84" x2="-385.86" y2="-445.97"/>
					
						<rect x="-387.6" y="-461.26" transform="matrix(0.9583 -0.2857 0.2857 0.9583 116.405 -117.8808)" class="st9" width="83.57" height="6.72"/>
				</g>
				<g>
					<line class="st9" x1="-305.78" y1="-469.84" x2="-350.64" y2="-499.41"/>
					
						<rect x="-331.57" y="-511.49" transform="matrix(0.5504 -0.8349 0.8349 0.5504 257.0523 -491.9305)" class="st9" width="6.72" height="53.73"/>
				</g>
			</g>
		</g>
	</g>
	<g id="SAIBA_2_" class="st5">
		<path id="B_6_" class="st10" d="M-282.93-201.24c11.68,0,22.26-8.07,22.26-29.87c0-12.59-6.57-17.18-9.81-22.04
			c3.25-4.86,5.37-11.16,5.81-18.12c-0.99-15.71-10.58-22.07-22.26-22.07h-52.8v8.49c7.65,0,9.18,6.64,9.43,11.89v51.32
			c-0.25,5.25-1.78,11.89-9.43,11.89v8.49H-282.93z M-284.34-258.2l-35.03,0v-25.72l24.01,0h11.02c5.7,0,10.31,3.42,10.31,11.25
			C-274.03-264.84-278.64-258.2-284.34-258.2z M-283.24-210.66l-36.12,0v-34.47l37.25,0c5.7,0,10.31,5.63,10.31,15.74
			C-271.8-217.85-277.55-210.66-283.24-210.66z"/>
		<path id="I_5_" class="st10" d="M-364.89-268.46v-5.2c0.39-5.37-0.3-10.9,7.71-10.9v-8.4h-12.23h-4.19h-12.23v8.4
			c8.02,0,7.32,5.54,7.71,10.9v5.2v42.05v5.2c-0.39,5.37,0.2,10.9-7.94,10.9v8.4h12.46h4.19h12.46v-8.4c-8.14,0-7.55-5.54-7.94-10.9
			v-5.2V-268.46z"/>
		<path id="S_5_" class="st10" d="M-548.49-283.66h28.55c5.64,0,13.57-1.86,13.57,14.05h11.92v-23.52h-54.04
			c-11.58,0-21.08,12.25-22.06,27.81c0.97,15.43,10.47,26.15,22.06,26.15h21.09v0h10.81c5.64,0,10.22,6.29,10.22,14.05
			c0,7.76-4.58,14.05-10.22,14.05h-18.27c-5.64,0-23.84,1.86-23.84-14.05h-11.92v23.52h54.04c11.58,0,21.08-12.25,22.06-27.81
			c-0.97-15.43-10.47-26.15-22.06-26.15h-10.81v0h-21.09c-5.64,0-10.22-6.29-10.22-14.05
			C-558.71-277.37-554.13-283.66-548.49-283.66z"/>
		<path id="A_esquerda_5_" class="st10" d="M-437.58-293.34h-14.6c0,6.37-21.52,84.77-35.84,84.77v7.33h22.73v-9.74
			c0-2.91,2.11-5.27,4.72-5.27h15.7h18.34c2.6,0,4.72,2.36,4.72,5.27v9.74h20.08v-7.33C-416.06-208.57-437.58-286.97-437.58-293.34z
			 M-458.99-228.49l12.7-45.84h5.48l12.7,45.84H-458.99z"/>
		<path id="A_esquerda_4_" class="st10" d="M-202.53-292.85h-14.46c0,6.31-21.32,84-35.52,84v7.26h22.52v-9.66
			c0-2.88,2.09-5.22,4.67-5.22h15.55h18.18c2.58,0,4.67,2.34,4.67,5.22v9.66h19.9v-7.26C-181.2-208.85-202.53-286.55-202.53-292.85z
			 M-223.75-228.6l12.59-45.43h5.43l12.59,45.43H-223.75z"/>
		<path class="st10" d="M-358.84-248.19c-3.4,0.84-7.78,1.29-12.74,1.29c-10.47,0-18.84-2.17-18.84-5.24c0-2.4,5.15-4.44,12.38-5.22
			c-8.88,0.79-15.33,3.15-15.33,5.94c0,3.44,9.75,6.22,21.79,6.22c4.98,0,9.32-0.42,12.99-1.23"/>
		<path class="st10" d="M-357.31-246.73c4.6-1.14,7.51-2.82,7.51-4.7c0-2.66-5.83-4.92-14.04-5.81c6.66,0.86,11.31,2.82,11.31,5.09
			c0,1.47-1.98,2.74-5.19,3.66"/>
		<circle class="st10" cx="-361.23" cy="-246.95" r="2.69"/>
		<path class="st10" d="M-363.05-248.92c-0.96,1.12-1.34,1.63-4.38,1.89l0.08,1.7c5.23-0.21,3.61,0.93,5.63,1.02"/>
		<circle class="st10" cx="-379.21" cy="-257.26" r="0.43"/>
	</g>
</g>
<g class="st4">
	<g class="st5">
		<g id="XMLID_1_">
			<g>
				<polygon class="st6" points="336.5,-435.33 334.25,-406.22 334.23,-406.22 314.88,-420.47 314.88,-420.5 293.4,-436.3 
					297.68,-454.9 315.26,-460.64 				"/>
				<polygon class="st6" points="334.25,-406.22 333.78,-400.23 333.54,-375.5 321.97,-352.3 309.47,-347.9 295.94,-362.48 
					309.84,-386.98 314.88,-420.47 334.23,-406.22 				"/>
				<polygon class="st6" points="294.72,-497.77 315.26,-460.64 297.68,-454.9 293.4,-436.3 261.62,-435.33 247.76,-451.6 
					259.34,-478.02 				"/>
				<polygon class="st6" points="314.88,-420.5 314.88,-420.47 309.84,-386.98 295.94,-362.48 282.39,-377.05 278.06,-391.98 
					293.4,-436.3 				"/>
				<polygon class="st7" points="309.47,-347.9 277.39,-336.6 270.78,-326.47 270.66,-326.59 252,-346.5 264.72,-377.22 
					282.39,-377.05 295.94,-362.48 				"/>
				<polygon class="st6" points="294.72,-497.77 259.34,-478.02 231.97,-483.65 235.74,-504.59 239.15,-516.94 262.98,-514.2 				
					"/>
				<polygon class="st7" points="293.4,-436.3 278.06,-391.98 282.39,-377.05 264.72,-377.22 249.15,-377.37 232.35,-386.13 
					250.72,-410.71 240.33,-432.05 261.62,-435.33 				"/>
				<polygon class="st8" points="270.78,-326.47 262.4,-313.64 223.5,-313.89 223.51,-315.22 223.68,-332.85 252,-346.5 
					270.66,-326.59 				"/>
				<polygon class="st8" points="264.72,-377.22 252,-346.5 223.68,-332.85 223.73,-337.82 233.97,-367.94 249.15,-377.37 				"/>
				<polygon class="st7" points="261.62,-435.33 240.33,-432.05 235.5,-431.3 214.1,-438.65 226.96,-457.56 225.54,-461.14 
					247.76,-451.6 				"/>
				<polygon class="st7" points="259.34,-478.02 247.76,-451.6 225.54,-461.14 225.52,-461.14 216.52,-483.8 231.97,-483.65 				"/>
				<path class="st8" d="M240.33-432.05l10.39,21.34l-18.37,24.58l-1.3-0.69l-8.17-4.24l-19.69,0.88l-13.79-7.49
					c0,0,3.04-22.36,3.34-23.07c0.3-0.74-8.61-12.11-8.61-12.11l7.93-25.04l22.03,19.24l21.41,7.35L240.33-432.05z"/>
				<polygon class="st8" points="249.15,-377.37 233.97,-367.94 211.94,-354.24 199.54,-337.28 188.23,-372.57 223.26,-378.98 
					231.05,-386.82 232.35,-386.13 				"/>
				<path class="st6" d="M239.15-516.94l-3.41,12.35l-37.97-7.72l-4.9-29.44c8.8,0.08,17.15,0.16,17.59,0.17
					C211.34-541.58,239.15-516.94,239.15-516.94z"/>
				<polygon class="st7" points="235.74,-504.59 231.97,-483.65 216.52,-483.8 198.11,-483.98 182.93,-471.59 183.11,-490.94 
					197.77,-512.31 				"/>
				<polygon class="st8" points="211.94,-354.24 233.97,-367.94 223.73,-337.82 223.68,-332.85 223.51,-315.22 223.5,-313.89 
					223.01,-313.89 216.4,-298.45 202.76,-298.93 177.42,-331.82 199.54,-337.28 				"/>
				<polygon class="st8" points="231.05,-386.82 223.26,-378.98 188.23,-372.57 153.77,-374.08 162.18,-390.58 189.4,-397.67 
					203.19,-390.19 222.88,-391.06 				"/>
				<polygon class="st7" points="225.54,-461.14 226.96,-457.56 214.1,-438.65 192.06,-457.89 183.88,-470.17 182.93,-471.59 
					198.11,-483.98 216.52,-483.8 225.52,-461.14 				"/>
				<polygon class="st8" points="188.23,-372.57 199.54,-337.28 177.42,-331.82 147.35,-337.78 149.88,-366.5 153.77,-374.08 				
					"/>
				<path class="st6" d="M192.86-541.75l4.9,29.44l-14.65,21.37l-28.89-35.05l18.02-15.96
					C172.25-541.95,182.84-541.85,192.86-541.75z"/>
				<path class="st8" d="M184.13-432.85c0,0,8.91,11.37,8.61,12.11c-0.3,0.71-3.34,23.07-3.34,23.07l-27.22,7.1l-16.44-7.51
					l3.8-43.24L184.13-432.85z"/>
				<polygon class="st8" points="183.88,-470.17 192.06,-457.89 184.13,-432.85 149.54,-441.34 147.54,-458.31 				"/>
				<path class="st7" d="M182.93-471.59l0.94,1.43l-36.34,11.86l-1.14-9.61l-13.43-18.83c0,0,22.09-2.3,23.6-3.02
					C158.07-490.47,182.93-471.59,182.93-471.59z"/>
				<path class="st6" d="M183.11-490.94l-0.18,19.35c0,0-24.86-18.88-26.37-18.18c-1.51,0.72-23.6,3.02-23.6,3.02l-9.62-21.6
					l11.37-25.03l19.52,7.39L183.11-490.94z"/>
				<polygon class="st8" points="162.18,-390.58 153.77,-374.08 149.88,-366.5 147.35,-337.78 128.02,-341.59 117.17,-361.05 
					109.95,-387.29 131.97,-382.59 145.74,-398.09 				"/>
				<polygon class="st7" points="147.54,-458.31 149.54,-441.34 127.07,-429.73 98.4,-456.8 101.87,-478.1 120.1,-480.44 
					132.97,-486.75 146.4,-467.92 				"/>
				<polygon class="st8" points="149.54,-441.34 145.74,-398.09 131.97,-382.59 109.95,-387.29 107.85,-408.76 127.07,-429.73 				
					"/>
				<polygon class="st6" points="134.71,-533.39 123.34,-508.35 132.97,-486.75 120.1,-480.44 101.87,-478.1 74.6,-494.13 
					88.84,-518.73 122.13,-538.14 				"/>
				<polygon class="st7" points="127.07,-429.73 107.85,-408.76 92.2,-417.8 81.33,-449.96 98.4,-456.8 				"/>
				<polygon class="st7" points="109.95,-387.29 117.17,-361.05 104.89,-356.17 77.24,-358.53 93.23,-380.81 95.54,-391.74 
					95.7,-392.3 				"/>
				<polygon class="st7" points="107.85,-408.76 109.95,-387.29 95.7,-392.3 90.04,-394.31 77.57,-393.1 92.2,-417.8 				"/>
				<polygon class="st6" points="101.87,-478.1 98.4,-456.8 81.33,-449.96 65.6,-426.8 70.9,-457.06 74.6,-494.13 				"/>
				<polygon class="st6" points="90.04,-394.31 95.7,-392.3 95.54,-391.74 93.23,-380.81 77.24,-358.53 44.09,-361.39 
					66.45,-392.02 77.57,-393.1 				"/>
				<polygon class="st7" points="81.33,-449.96 92.2,-417.8 77.57,-393.1 66.45,-392.02 65.6,-426.8 				"/>
				<polygon class="st6" points="74.6,-494.13 70.9,-457.06 43.97,-459.3 42.39,-494.44 				"/>
				<polygon class="st6" points="70.9,-457.06 65.6,-426.8 47.94,-420.18 30.14,-436.89 43.97,-459.3 				"/>
				<polygon class="st6" points="65.6,-426.8 66.45,-392.02 39.21,-401.38 47.94,-420.18 				"/>
				<polygon class="st6" points="66.45,-392.02 44.09,-361.39 8.12,-403.69 39.21,-401.38 				"/>
				<polygon class="st6" points="47.94,-420.18 39.21,-401.38 8.12,-403.69 8.63,-457.12 30.14,-436.89 				"/>
				<polygon class="st6" points="42.39,-494.44 43.97,-459.3 30.14,-436.89 8.63,-457.12 				"/>
			</g>
		</g>
		<g id="Rede_Neural_1_">
			<g>
				<circle class="st9" cx="229.21" cy="-360.11" r="14.22"/>
			</g>
			<g>
				<circle class="st9" cx="264.44" cy="-413.55" r="14.22"/>
			</g>
			<g>
				<circle class="st9" cx="166.74" cy="-362.96" r="14.22"/>
			</g>
			<g>
				<circle class="st9" cx="201.97" cy="-416.4" r="14.22"/>
			</g>
			<g>
				<circle class="st9" cx="237.2" cy="-469.84" r="14.22"/>
			</g>
			<g>
				<circle class="st9" cx="95.38" cy="-449.93" r="14.22"/>
			</g>
			<g>
				<circle class="st9" cx="121.89" cy="-392.53" r="14.22"/>
			</g>
			<g>
				<circle class="st9" cx="157.11" cy="-445.97" r="14.22"/>
			</g>
			<g>
				<circle class="st9" cx="130.6" cy="-503.39" r="14.22"/>
			</g>
			<g>
				<circle class="st9" cx="191.53" cy="-499.95" r="14.22"/>
			</g>
			<g>
				<g>
					<line class="st9" x1="121.89" y1="-392.53" x2="95.38" y2="-449.93"/>
					
						<rect x="105.27" y="-452.85" transform="matrix(0.9079 -0.4192 0.4192 0.9079 186.5927 6.7395)" class="st9" width="6.72" height="63.23"/>
				</g>
				<g>
					<line class="st9" x1="157.11" y1="-445.97" x2="130.61" y2="-503.38"/>
					
						<rect x="140.5" y="-506.29" transform="matrix(0.9079 -0.4192 0.4192 0.9079 212.2409 16.5849)" class="st9" width="6.72" height="63.23"/>
				</g>
				<g>
					<line class="st9" x1="192.34" y1="-499.41" x2="201.97" y2="-416.4"/>
					
						<rect x="193.8" y="-499.69" transform="matrix(0.9933 -0.1152 0.1152 0.9933 54.073 19.6666)" class="st9" width="6.72" height="83.57"/>
				</g>
				<g>
					<line class="st9" x1="237.2" y1="-469.84" x2="264.44" y2="-413.55"/>
					
						<rect x="247.46" y="-472.96" transform="matrix(0.9001 -0.4356 0.4356 0.9001 217.4732 65.1509)" class="st9" width="6.72" height="62.53"/>
				</g>
				<g>
					<line class="st9" x1="229.21" y1="-360.11" x2="201.97" y2="-416.4"/>
					
						<rect x="212.23" y="-419.52" transform="matrix(0.9001 -0.4356 0.4356 0.9001 190.6714 55.1414)" class="st9" width="6.72" height="62.53"/>
				</g>
				<g>
					<line class="st9" x1="166.74" y1="-362.96" x2="121.89" y2="-392.53"/>
					
						<rect x="140.95" y="-404.61" transform="matrix(0.5504 -0.8349 0.8349 0.5504 380.2729 -49.3531)" class="st9" width="6.72" height="53.73"/>
				</g>
				<g>
					<line class="st9" x1="201.97" y1="-416.4" x2="157.11" y2="-445.97"/>
					
						<rect x="176.18" y="-458.05" transform="matrix(0.5504 -0.8349 0.8349 0.5504 440.7309 -43.9694)" class="st9" width="6.72" height="53.72"/>
				</g>
				<g>
					<line class="st9" x1="157.11" y1="-445.97" x2="94" y2="-450.84"/>
					
						<rect x="122.2" y="-480.05" transform="matrix(0.077 -0.997 0.997 0.077 562.9691 -288.7051)" class="st9" width="6.72" height="63.3"/>
				</g>
				<g>
					<line class="st9" x1="121.89" y1="-392.53" x2="201.97" y2="-416.4"/>
					
						<rect x="120.14" y="-407.82" transform="matrix(0.9583 -0.2857 0.2857 0.9583 122.299 29.4038)" class="st9" width="83.57" height="6.72"/>
				</g>
				<g>
					<line class="st9" x1="229.21" y1="-360.11" x2="166.74" y2="-362.96"/>
					
						<rect x="194.62" y="-392.8" transform="matrix(0.0456 -0.999 0.999 0.0456 550.1193 -147.2948)" class="st9" width="6.72" height="62.53"/>
				</g>
				<g>
					<line class="st9" x1="263.5" y1="-414.17" x2="201.97" y2="-416.4"/>
					
						<rect x="229.38" y="-446.07" transform="matrix(0.0362 -0.9993 0.9993 0.0362 639.3167 -167.6539)" class="st9" width="6.72" height="61.58"/>
				</g>
				<g>
					<line class="st9" x1="191.2" y1="-500.16" x2="130.61" y2="-503.38"/>
					
						<rect x="157.55" y="-532.11" transform="matrix(0.053 -0.9986 0.9986 0.053 653.4422 -314.5003)" class="st9" width="6.72" height="60.68"/>
				</g>
				<g>
					<line class="st9" x1="166.74" y1="-362.96" x2="157.11" y2="-445.97"/>
					
						<rect x="158.57" y="-446.25" transform="matrix(0.9933 -0.1152 0.1152 0.9933 47.6813 15.9638)" class="st9" width="6.72" height="83.57"/>
				</g>
				<g>
					<line class="st9" x1="237.2" y1="-469.84" x2="157.11" y2="-445.97"/>
					
						<rect x="155.37" y="-461.26" transform="matrix(0.9583 -0.2857 0.2857 0.9583 139.0347 37.2408)" class="st9" width="83.57" height="6.72"/>
				</g>
				<g>
					<line class="st9" x1="237.2" y1="-469.84" x2="192.34" y2="-499.41"/>
					
						<rect x="211.41" y="-511.49" transform="matrix(0.5504 -0.8349 0.8349 0.5504 501.192 -38.5873)" class="st9" width="6.72" height="53.73"/>
				</g>
			</g>
		</g>
	</g>
	<g id="SAIBA_1_" class="st5">
		<path id="B_1_" class="st10" d="M260.04-201.24c11.68,0,22.26-8.07,22.26-29.87c0-12.59-6.57-17.18-9.81-22.04
			c3.25-4.86,5.37-11.16,5.81-18.12c-0.99-15.71-10.58-22.07-22.26-22.07h-52.8v8.49c7.65,0,9.18,6.64,9.43,11.89v51.32
			c-0.25,5.25-1.78,11.89-9.43,11.89v8.49H260.04z M258.64-258.2l-35.03,0v-25.72l24.01,0h11.02c5.7,0,10.31,3.42,10.31,11.25
			C268.95-264.84,264.33-258.2,258.64-258.2z M259.73-210.66l-36.12,0v-34.47l37.25,0c5.7,0,10.31,5.63,10.31,15.74
			C271.17-217.85,265.43-210.66,259.73-210.66z"/>
		<path id="I_1_" class="st10" d="M178.09-268.46v-5.2c0.39-5.37-0.3-10.9,7.71-10.9v-8.4h-12.23h-4.19h-12.23v8.4
			c8.02,0,7.32,5.54,7.71,10.9v5.2v42.05v5.2c-0.39,5.37,0.2,10.9-7.94,10.9v8.4h12.46h4.19h12.46v-8.4c-8.14,0-7.55-5.54-7.94-10.9
			v-5.2V-268.46z"/>
		<path id="S_1_" class="st10" d="M-5.51-283.66h28.55c5.64,0,13.57-1.86,13.57,14.05h11.92v-23.52H-5.51
			c-11.58,0-21.08,12.25-22.06,27.81c0.97,15.43,10.47,26.15,22.06,26.15h21.09v0h10.81c5.64,0,10.22,6.29,10.22,14.05
			c0,7.76-4.58,14.05-10.22,14.05H8.11c-5.64,0-23.84,1.86-23.84-14.05h-11.92v23.52h54.04c11.58,0,21.08-12.25,22.06-27.81
			c-0.97-15.43-10.47-26.15-22.06-26.15H15.57v0H-5.51c-5.64,0-10.22-6.29-10.22-14.05C-15.73-277.37-11.16-283.66-5.51-283.66z"/>
		<path id="A_esquerda_2_" class="st10" d="M105.4-293.34H90.8c0,6.37-21.52,84.77-35.84,84.77v7.33h22.73v-9.74
			c0-2.91,2.11-5.27,4.72-5.27h15.7h18.34c2.6,0,4.72,2.36,4.72,5.27v9.74h20.08v-7.33C126.92-208.57,105.4-286.97,105.4-293.34z
			 M83.99-228.49l12.7-45.84h5.48l12.7,45.84H83.99z"/>
		<path id="A_esquerda_1_" class="st10" d="M340.45-292.85h-14.46c0,6.31-21.32,84-35.52,84v7.26h22.52v-9.66
			c0-2.88,2.09-5.22,4.67-5.22h15.55h18.18c2.58,0,4.67,2.34,4.67,5.22v9.66h19.9v-7.26C361.77-208.85,340.45-286.55,340.45-292.85z
			 M319.23-228.6l12.59-45.43h5.43l12.59,45.43H319.23z"/>
		<path class="st10" d="M184.13-248.19c-3.4,0.84-7.78,1.29-12.74,1.29c-10.47,0-18.84-2.17-18.84-5.24c0-2.4,5.15-4.44,12.38-5.22
			c-8.88,0.79-15.33,3.15-15.33,5.94c0,3.44,9.75,6.22,21.79,6.22c4.98,0,9.32-0.42,12.99-1.23"/>
		<path class="st10" d="M185.67-246.73c4.6-1.14,7.51-2.82,7.51-4.7c0-2.66-5.83-4.92-14.04-5.81c6.66,0.86,11.31,2.82,11.31,5.09
			c0,1.47-1.98,2.74-5.19,3.66"/>
		<circle class="st10" cx="181.75" cy="-246.95" r="2.69"/>
		<path class="st10" d="M179.92-248.92c-0.96,1.12-1.34,1.63-4.38,1.89l0.08,1.7c5.23-0.21,3.61,0.93,5.63,1.02"/>
		<circle class="st10" cx="163.76" cy="-257.26" r="0.43"/>
	</g>
</g>
<g class="st4">
	<g class="st5">
		<g id="XMLID_3_">
			<g>
				<polygon class="st6" points="-206.48,110.34 -208.72,139.45 -208.75,139.45 -228.1,125.2 -228.1,125.17 -249.58,109.37 
					-245.29,90.77 -227.72,85.03 				"/>
				<polygon class="st6" points="-208.72,139.45 -209.2,145.44 -209.44,170.17 -221.01,193.37 -233.51,197.77 -247.04,183.19 
					-233.14,158.69 -228.1,125.2 -208.75,139.45 				"/>
				<polygon class="st6" points="-248.25,47.9 -227.72,85.03 -245.29,90.77 -249.58,109.37 -281.36,110.34 -295.21,94.08 
					-283.63,67.66 				"/>
				<polygon class="st6" points="-228.1,125.17 -228.1,125.2 -233.14,158.69 -247.04,183.19 -260.58,168.62 -264.91,153.69 
					-249.58,109.37 				"/>
				<polygon class="st7" points="-233.51,197.77 -265.59,209.07 -272.2,219.2 -272.32,219.08 -290.98,199.17 -278.25,168.45 
					-260.58,168.62 -247.04,183.19 				"/>
				<polygon class="st6" points="-248.25,47.9 -283.63,67.66 -311,62.02 -307.24,41.08 -303.83,28.73 -279.99,31.47 				"/>
				<polygon class="st7" points="-249.58,109.37 -264.91,153.69 -260.58,168.62 -278.25,168.45 -293.83,168.3 -310.63,159.54 
					-292.26,134.96 -302.65,113.62 -281.36,110.34 				"/>
				<polygon class="st8" points="-272.2,219.2 -280.58,232.03 -319.48,231.78 -319.46,230.45 -319.3,212.82 -290.98,199.17 
					-272.32,219.08 				"/>
				<polygon class="st8" points="-278.25,168.45 -290.98,199.17 -319.3,212.82 -319.25,207.85 -309.01,177.73 -293.83,168.3 				"/>
				<polygon class="st7" points="-281.36,110.34 -302.65,113.62 -307.47,114.37 -328.88,107.02 -316.02,88.12 -317.44,84.53 
					-295.21,94.08 				"/>
				<polygon class="st7" points="-283.63,67.66 -295.21,94.08 -317.44,84.53 -317.46,84.53 -326.46,61.87 -311,62.02 				"/>
				<path class="st8" d="M-302.65,113.62l10.39,21.34l-18.37,24.58l-1.3-0.69l-8.17-4.24l-19.69,0.88l-13.79-7.49
					c0,0,3.04-22.37,3.34-23.07c0.3-0.74-8.61-12.11-8.61-12.11l7.93-25.04l22.03,19.24l21.41,7.35L-302.65,113.62z"/>
				<polygon class="st8" points="-293.83,168.3 -309.01,177.73 -331.04,191.43 -343.44,208.39 -354.75,173.1 -319.72,166.7 
					-311.93,158.85 -310.63,159.54 				"/>
				<path class="st6" d="M-303.83,28.73l-3.41,12.35l-37.97-7.72l-4.9-29.44c8.8,0.08,17.15,0.16,17.59,0.17
					C-331.63,4.09-303.83,28.73-303.83,28.73z"/>
				<polygon class="st7" points="-307.24,41.08 -311,62.02 -326.46,61.87 -344.86,61.7 -360.05,74.08 -359.86,54.73 -345.21,33.36 
									"/>
				<polygon class="st8" points="-331.04,191.43 -309.01,177.73 -319.25,207.85 -319.3,212.82 -319.46,230.45 -319.48,231.78 
					-319.97,231.78 -326.58,247.23 -340.21,246.74 -365.56,213.85 -343.44,208.39 				"/>
				<polygon class="st8" points="-311.93,158.85 -319.72,166.7 -354.75,173.1 -389.21,171.59 -380.8,155.09 -353.57,148 
					-339.79,155.48 -320.09,154.61 				"/>
				<polygon class="st7" points="-317.44,84.53 -316.02,88.12 -328.88,107.02 -350.91,87.78 -359.1,75.5 -360.05,74.08 
					-344.86,61.7 -326.46,61.87 -317.46,84.53 				"/>
				<polygon class="st8" points="-354.75,173.1 -343.44,208.39 -365.56,213.85 -395.63,207.89 -393.09,179.17 -389.21,171.59 				
					"/>
				<path class="st6" d="M-350.11,3.92l4.9,29.44l-14.65,21.37l-28.89-35.05l18.02-15.96C-370.73,3.72-360.14,3.82-350.11,3.92z"/>
				<path class="st8" d="M-358.84,112.82c0,0,8.91,11.37,8.61,12.11c-0.3,0.71-3.34,23.07-3.34,23.07l-27.22,7.1l-16.44-7.51
					l3.8-43.24L-358.84,112.82z"/>
				<polygon class="st8" points="-359.1,75.5 -350.91,87.78 -358.84,112.82 -393.44,104.34 -395.44,87.36 				"/>
				<path class="st7" d="M-360.05,74.08l0.94,1.43l-36.34,11.86l-1.14-9.61l-13.43-18.83c0,0,22.09-2.3,23.6-3.02
					C-384.91,55.2-360.05,74.08-360.05,74.08z"/>
				<path class="st6" d="M-359.86,54.73l-0.18,19.35c0,0-24.86-18.88-26.37-18.18c-1.51,0.72-23.6,3.02-23.6,3.02l-9.62-21.6
					l11.37-25.03l19.52,7.39L-359.86,54.73z"/>
				<polygon class="st8" points="-380.8,155.09 -389.21,171.59 -393.09,179.17 -395.63,207.89 -414.96,204.08 -425.8,184.62 
					-433.02,158.38 -411,163.08 -397.24,147.58 				"/>
				<polygon class="st7" points="-395.44,87.36 -393.44,104.34 -415.91,115.94 -444.58,88.87 -441.1,67.57 -422.87,65.24 
					-410.01,58.92 -396.57,77.75 				"/>
				<polygon class="st8" points="-393.44,104.34 -397.24,147.58 -411,163.08 -433.02,158.38 -435.13,136.91 -415.91,115.94 				"/>
				<polygon class="st6" points="-408.26,12.29 -419.63,37.32 -410.01,58.92 -422.87,65.24 -441.1,67.57 -468.38,51.54 
					-454.14,26.94 -420.85,7.53 				"/>
				<polygon class="st7" points="-415.91,115.94 -435.13,136.91 -450.77,127.87 -461.65,95.71 -444.58,88.87 				"/>
				<polygon class="st7" points="-433.02,158.38 -425.8,184.62 -438.09,189.5 -465.74,187.14 -449.75,164.87 -447.43,153.93 
					-447.28,153.37 				"/>
				<polygon class="st7" points="-435.13,136.91 -433.02,158.38 -447.28,153.37 -452.94,151.36 -465.41,152.57 -450.77,127.87 				
					"/>
				<polygon class="st6" points="-441.1,67.57 -444.58,88.87 -461.65,95.71 -477.37,118.87 -472.07,88.61 -468.38,51.54 				"/>
				<polygon class="st6" points="-452.94,151.36 -447.28,153.37 -447.43,153.93 -449.75,164.87 -465.74,187.14 -498.89,184.28 
					-476.53,153.65 -465.41,152.57 				"/>
				<polygon class="st7" points="-461.65,95.71 -450.77,127.87 -465.41,152.57 -476.53,153.65 -477.37,118.87 				"/>
				<polygon class="st6" points="-468.38,51.54 -472.07,88.61 -499.01,86.37 -500.59,51.23 				"/>
				<polygon class="st6" points="-472.07,88.61 -477.37,118.87 -495.03,125.5 -512.84,108.78 -499.01,86.37 				"/>
				<polygon class="st6" points="-477.37,118.87 -476.53,153.65 -503.76,144.29 -495.03,125.5 				"/>
				<polygon class="st6" points="-476.53,153.65 -498.89,184.28 -534.85,141.99 -503.76,144.29 				"/>
				<polygon class="st6" points="-495.03,125.5 -503.76,144.29 -534.85,141.99 -534.34,88.55 -512.84,108.78 				"/>
				<polygon class="st6" points="-500.59,51.23 -499.01,86.37 -512.84,108.78 -534.34,88.55 				"/>
			</g>
		</g>
		<g id="Rede_Neural_3_">
			<g>
				<circle class="st9" cx="-313.76" cy="185.56" r="14.22"/>
			</g>
			<g>
				<circle class="st9" cx="-278.54" cy="132.12" r="14.22"/>
			</g>
			<g>
				<circle class="st9" cx="-376.23" cy="182.71" r="14.22"/>
			</g>
			<g>
				<circle class="st9" cx="-341.01" cy="129.27" r="14.22"/>
			</g>
			<g>
				<circle class="st9" cx="-305.78" cy="75.83" r="14.22"/>
			</g>
			<g>
				<circle class="st9" cx="-447.6" cy="95.74" r="14.22"/>
			</g>
			<g>
				<circle class="st9" cx="-421.09" cy="153.14" r="14.22"/>
			</g>
			<g>
				<circle class="st9" cx="-385.86" cy="99.7" r="14.22"/>
			</g>
			<g>
				<circle class="st9" cx="-412.38" cy="42.28" r="14.22"/>
			</g>
			<g>
				<circle class="st9" cx="-351.45" cy="45.72" r="14.22"/>
			</g>
			<g>
				<g>
					<line class="st9" x1="-421.09" y1="153.14" x2="-447.6" y2="95.74"/>
					
						<rect x="-437.7" y="92.82" transform="matrix(0.9079 -0.4192 0.4192 0.9079 -92.1759 -170.6209)" class="st9" width="6.72" height="63.23"/>
				</g>
				<g>
					<line class="st9" x1="-385.86" y1="99.7" x2="-412.37" y2="42.3"/>
					
						<rect x="-402.48" y="39.38" transform="matrix(0.9079 -0.4192 0.4192 0.9079 -66.5277 -160.7755)" class="st9" width="6.72" height="63.23"/>
				</g>
				<g>
					<line class="st9" x1="-350.64" y1="46.26" x2="-341.01" y2="129.27"/>
					
						<rect x="-349.18" y="45.98" transform="matrix(0.9933 -0.1152 0.1152 0.9933 -12.4156 -39.2611)" class="st9" width="6.72" height="83.57"/>
				</g>
				<g>
					<line class="st9" x1="-305.78" y1="75.83" x2="-278.54" y2="132.12"/>
					
						<rect x="-295.52" y="72.71" transform="matrix(0.9001 -0.4356 0.4356 0.9001 -74.4763 -116.8908)" class="st9" width="6.72" height="62.53"/>
				</g>
				<g>
					<line class="st9" x1="-313.76" y1="185.56" x2="-341.01" y2="129.27"/>
					
						<rect x="-330.75" y="126.15" transform="matrix(0.9001 -0.4356 0.4356 0.9001 -101.2748 -126.8991)" class="st9" width="6.72" height="62.53"/>
				</g>
				<g>
					<line class="st9" x1="-376.23" y1="182.71" x2="-421.09" y2="153.14"/>
					
						<rect x="-402.02" y="141.06" transform="matrix(0.5504 -0.8349 0.8349 0.5504 -319.4551 -257.3459)" class="st9" width="6.72" height="53.73"/>
				</g>
				<g>
					<line class="st9" x1="-341.01" y1="129.27" x2="-385.86" y2="99.7"/>
					
						<rect x="-366.79" y="87.62" transform="matrix(0.5504 -0.8349 0.8349 0.5504 -258.9972 -251.9622)" class="st9" width="6.72" height="53.72"/>
				</g>
				<g>
					<line class="st9" x1="-385.86" y1="99.7" x2="-448.97" y2="94.83"/>
					
						<rect x="-420.78" y="65.62" transform="matrix(0.077 -0.997 0.997 0.077 -482.2667 -326.4002)" class="st9" width="6.72" height="63.3"/>
				</g>
				<g>
					<line class="st9" x1="-421.09" y1="153.14" x2="-341.01" y2="129.27"/>
					
						<rect x="-422.83" y="137.85" transform="matrix(0.9583 -0.2857 0.2857 0.9583 -56.2222 -102.9758)" class="st9" width="83.57" height="6.72"/>
				</g>
				<g>
					<line class="st9" x1="-313.76" y1="185.56" x2="-376.23" y2="182.71"/>
					
						<rect x="-348.36" y="152.87" transform="matrix(0.0456 -0.999 0.999 0.0456 -513.2286 -168.8927)" class="st9" width="6.72" height="62.53"/>
				</g>
				<g>
					<line class="st9" x1="-279.47" y1="131.5" x2="-341.01" y2="129.27"/>
					
						<rect x="-313.6" y="99.6" transform="matrix(0.0362 -0.9993 0.9993 0.0362 -429.3002 -184.373)" class="st9" width="6.72" height="61.58"/>
				</g>
				<g>
					<line class="st9" x1="-351.77" y1="45.51" x2="-412.37" y2="42.3"/>
					
						<rect x="-385.43" y="13.56" transform="matrix(0.053 -0.9986 0.9986 0.053 -405.6679 -339.9566)" class="st9" width="6.72" height="60.68"/>
				</g>
				<g>
					<line class="st9" x1="-376.23" y1="182.71" x2="-385.86" y2="99.7"/>
					
						<rect x="-384.41" y="99.42" transform="matrix(0.9933 -0.1152 0.1152 0.9933 -18.8079 -42.9644)" class="st9" width="6.72" height="83.57"/>
				</g>
				<g>
					<line class="st9" x1="-305.78" y1="75.83" x2="-385.86" y2="99.7"/>
					
						<rect x="-387.6" y="84.41" transform="matrix(0.9583 -0.2857 0.2857 0.9583 -39.4866 -95.1388)" class="st9" width="83.57" height="6.72"/>
				</g>
				<g>
					<line class="st9" x1="-305.78" y1="75.83" x2="-350.64" y2="46.26"/>
					
						<rect x="-331.57" y="34.18" transform="matrix(0.5504 -0.8349 0.8349 0.5504 -198.5408 -246.5791)" class="st9" width="6.72" height="53.73"/>
				</g>
			</g>
		</g>
	</g>
	<g id="SAIBA_4_" class="st5">
		<path id="B_3_" class="st10" d="M-282.93,344.43c11.68,0,22.26-8.07,22.26-29.87c0-12.59-6.57-17.18-9.81-22.04
			c3.25-4.86,5.37-11.16,5.81-18.12c-0.99-15.71-10.58-22.07-22.26-22.07h-52.8v8.49c7.65,0,9.18,6.64,9.43,11.89v51.32
			c-0.25,5.25-1.78,11.89-9.43,11.89v8.49H-282.93z M-284.34,287.47l-35.03,0v-25.72l24.01,0h11.02c5.7,0,10.31,3.42,10.31,11.25
			C-274.03,280.84-278.64,287.47-284.34,287.47z M-283.24,335.02l-36.12,0v-34.47l37.25,0c5.7,0,10.31,5.63,10.31,15.74
			C-271.8,327.82-277.55,335.02-283.24,335.02z"/>
		<path id="I_3_" class="st10" d="M-364.89,277.21v-5.2c0.39-5.37-0.3-10.9,7.71-10.9v-8.4h-12.23h-4.19h-12.23v8.4
			c8.02,0,7.32,5.54,7.71,10.9v5.2v42.05v5.2c-0.39,5.37,0.2,10.9-7.94,10.9v8.4h12.46h4.19h12.46v-8.4c-8.14,0-7.55-5.54-7.94-10.9
			v-5.2V277.21z"/>
		<path id="S_3_" class="st10" d="M-548.49,262.01h28.55c5.64,0,13.57-1.86,13.57,14.05h11.92v-23.52h-54.04
			c-11.58,0-21.08,12.25-22.06,27.81c0.97,15.43,10.47,26.15,22.06,26.15h21.09v0h10.81c5.64,0,10.22,6.29,10.22,14.05
			c0,7.76-4.58,14.05-10.22,14.05h-18.27c-5.64,0-23.84,1.86-23.84-14.05h-11.92v23.52h54.04c11.58,0,21.08-12.25,22.06-27.81
			c-0.97-15.43-10.47-26.15-22.06-26.15h-10.81v0h-21.09c-5.64,0-10.22-6.29-10.22-14.05C-558.71,268.3-554.13,262.01-548.49,262.01
			z"/>
		<path id="A_esquerda_8_" class="st10" d="M-437.58,252.34h-14.6c0,6.37-21.52,84.77-35.84,84.77v7.33h22.73v-9.74
			c0-2.91,2.11-5.27,4.72-5.27h15.7h18.34c2.6,0,4.72,2.36,4.72,5.27v9.74h20.08v-7.33C-416.06,337.1-437.58,258.7-437.58,252.34z
			 M-458.99,317.18l12.7-45.84h5.48l12.7,45.84H-458.99z"/>
		<path id="A_esquerda_7_" class="st10" d="M-202.53,252.82h-14.46c0,6.31-21.32,84-35.52,84v7.26h22.52v-9.66
			c0-2.88,2.09-5.22,4.67-5.22h15.55h18.18c2.58,0,4.67,2.34,4.67,5.22v9.66h19.9v-7.26C-181.2,336.82-202.53,259.12-202.53,252.82z
			 M-223.75,317.07l12.59-45.43h5.43l12.59,45.43H-223.75z"/>
		<path class="st10" d="M-358.84,297.48c-3.4,0.84-7.78,1.29-12.74,1.29c-10.47,0-18.84-2.17-18.84-5.24c0-2.4,5.15-4.44,12.38-5.22
			c-8.88,0.79-15.33,3.15-15.33,5.94c0,3.44,9.75,6.22,21.79,6.22c4.98,0,9.32-0.42,12.99-1.23"/>
		<path class="st10" d="M-357.31,298.94c4.6-1.14,7.51-2.82,7.51-4.7c0-2.66-5.83-4.92-14.04-5.81c6.66,0.86,11.31,2.82,11.31,5.09
			c0,1.47-1.98,2.74-5.19,3.66"/>
		<circle class="st10" cx="-361.23" cy="298.72" r="2.69"/>
		<path class="st10" d="M-363.05,296.75c-0.96,1.12-1.34,1.63-4.38,1.89l0.08,1.7c5.23-0.21,3.61,0.93,5.63,1.02"/>
		<circle class="st10" cx="-379.21" cy="288.41" r="0.43"/>
	</g>
</g>
<g id="Guias" class="st4">
	<line class="st11" x1="-368.82" y1="-71.26" x2="-368.82" y2="-666.54"/>
	<line class="st11" x1="-789.66" y1="-368.92" x2="52.23" y2="-368.92"/>
	<circle class="st11" cx="-368.82" cy="-368.9" r="297.64"/>
	<rect x="-640.31" y="-640.39" class="st12" width="542.98" height="542.98"/>
</g>
<g id="Guias_1_" class="st4">
	<line class="st11" x1="174.06" y1="-71.26" x2="174.06" y2="-666.54"/>
	<line class="st11" x1="-246.79" y1="-368.92" x2="595.1" y2="-368.92"/>
	<circle class="st11" cx="174.06" cy="-368.9" r="297.64"/>
	<rect x="-97.43" y="-640.39" class="st12" width="542.98" height="542.98"/>
</g>
<g id="Guias_3_" class="st4">
	<line class="st11" x1="-368.82" y1="471.72" x2="-368.82" y2="-123.56"/>
	<line class="st11" x1="-789.66" y1="174.06" x2="52.23" y2="174.06"/>
	<circle class="st11" cx="-368.82" cy="174.08" r="297.64"/>
	<rect x="-640.31" y="-97.41" class="st12" width="542.98" height="542.98"/>
</g>
<g id="Guias_2_" class="st4">
	<line class="st11" x1="174.06" y1="471.72" x2="174.06" y2="-123.56"/>
	<line class="st11" x1="-246.79" y1="174.06" x2="595.1" y2="174.06"/>
	<circle class="st11" cx="174.06" cy="174.08" r="297.64"/>
	<rect x="-97.43" y="-97.41" class="st12" width="542.98" height="542.98"/>
</g>
<text transform="matrix(1 0 0 1 -493.0875 -591.9385)" class="st4" style="font-family:'MyriadPro-Regular'; font-size:19.8425px;">Tom usado na logo atualmente</text>
<text transform="matrix(1 0 0 1 39.289 -591.9385)" class="st4" style="font-family:'MyriadPro-Regular'; font-size:19.8425px;">Tom usado na capa do padrao A4</text>
<text transform="matrix(1 0 0 1 -449.7022 -32.628)" class="st4" style="font-family:'MyriadPro-Regular'; font-size:19.8425px;">Tom da logo original</text>
<text transform="matrix(1 0 0 1 112.4179 -32.628)" class="st4" style="font-family:'MyriadPro-Regular'; font-size:19.8425px;">Tom cyberpunk</text>
<g>
	<g class="st4">
		<g id="SAIBA_3_" class="st5">
			<path id="B_2_" class="st10" d="M260.04,344.43c11.68,0,22.26-8.07,22.26-29.87c0-12.59-6.57-17.18-9.81-22.04
				c3.25-4.86,5.37-11.16,5.81-18.12c-0.99-15.71-10.58-22.07-22.26-22.07h-52.8v8.49c7.65,0,9.18,6.64,9.43,11.89v51.32
				c-0.25,5.25-1.78,11.89-9.43,11.89v8.49H260.04z M258.64,287.47l-35.03,0v-25.72l24.01,0h11.02c5.7,0,10.31,3.42,10.31,11.25
				C268.95,280.84,264.33,287.47,258.64,287.47z M259.73,335.02l-36.12,0v-34.47l37.25,0c5.7,0,10.31,5.63,10.31,15.74
				C271.17,327.82,265.43,335.02,259.73,335.02z"/>
			<path id="I_2_" class="st10" d="M178.09,277.21v-5.2c0.39-5.37-0.3-10.9,7.71-10.9v-8.4h-12.23h-4.19h-12.23v8.4
				c8.02,0,7.32,5.54,7.71,10.9v5.2v42.05v5.2c-0.39,5.37,0.2,10.9-7.94,10.9v8.4h12.46h4.19h12.46v-8.4
				c-8.14,0-7.55-5.54-7.94-10.9v-5.2V277.21z"/>
			<path id="S_2_" class="st10" d="M-5.51,262.01h28.55c5.64,0,13.57-1.86,13.57,14.05h11.92v-23.52H-5.51
				c-11.58,0-21.08,12.25-22.06,27.81c0.97,15.43,10.47,26.15,22.06,26.15h21.09v0h10.81c5.64,0,10.22,6.29,10.22,14.05
				c0,7.76-4.58,14.05-10.22,14.05H8.11c-5.64,0-23.84,1.86-23.84-14.05h-11.92v23.52h54.04c11.58,0,21.08-12.25,22.06-27.81
				c-0.97-15.43-10.47-26.15-22.06-26.15H15.57v0H-5.51c-5.64,0-10.22-6.29-10.22-14.05C-15.73,268.3-11.16,262.01-5.51,262.01z"/>
			<path id="A_esquerda_6_" class="st10" d="M105.4,252.34H90.8c0,6.37-21.52,84.77-35.84,84.77v7.33h22.73v-9.74
				c0-2.91,2.11-5.27,4.72-5.27h15.7h18.34c2.6,0,4.72,2.36,4.72,5.27v9.74h20.08v-7.33C126.92,337.1,105.4,258.7,105.4,252.34z
				 M83.99,317.18l12.7-45.84h5.48l12.7,45.84H83.99z"/>
			<path id="A_esquerda_3_" class="st10" d="M340.45,252.82h-14.46c0,6.31-21.32,84-35.52,84v7.26h22.52v-9.66
				c0-2.88,2.09-5.22,4.67-5.22h15.55h18.18c2.58,0,4.67,2.34,4.67,5.22v9.66h19.9v-7.26C361.77,336.82,340.45,259.12,340.45,252.82
				z M319.23,317.07l12.59-45.43h5.43l12.59,45.43H319.23z"/>
			<path class="st10" d="M184.13,297.48c-3.4,0.84-7.78,1.29-12.74,1.29c-10.47,0-18.84-2.17-18.84-5.24c0-2.4,5.15-4.44,12.38-5.22
				c-8.88,0.79-15.33,3.15-15.33,5.94c0,3.44,9.75,6.22,21.79,6.22c4.98,0,9.32-0.42,12.99-1.23"/>
			<path class="st10" d="M185.67,298.94c4.6-1.14,7.51-2.82,7.51-4.7c0-2.66-5.83-4.92-14.04-5.81c6.66,0.86,11.31,2.82,11.31,5.09
				c0,1.47-1.98,2.74-5.19,3.66"/>
			<circle class="st10" cx="181.75" cy="298.72" r="2.69"/>
			<path class="st10" d="M179.92,296.75c-0.96,1.12-1.34,1.63-4.38,1.89l0.08,1.7c5.23-0.21,3.61,0.93,5.63,1.02"/>
			<circle class="st10" cx="163.76" cy="288.41" r="0.43"/>
		</g>
	</g>
	<g>
		<g>
			<path class="st6" d="M157.03,162.31c-2.12-0.26-4.22-0.99-6.13-2.25c-3.48-2.3-5.62-5.85-6.24-9.67l-34.24-2.64
				c-0.39,1.47-1,2.9-1.88,4.23c-0.86,1.3-1.9,2.41-3.06,3.33l15.04,32.58c3.56-0.7,7.39-0.06,10.66,2.09
				c1.91,1.26,3.4,2.9,4.48,4.75l24.3-7.24L157.03,162.31z"/>
			<path class="st6" d="M166.68,136.12c1.91,1.26,3.4,2.9,4.48,4.75l24.3-7.24l-2.98-25.65c-2.38-0.16-4.76-0.92-6.9-2.33
				c-3.44-2.27-5.57-5.77-6.22-9.53l-33.58-1.78c-0.39,1.3-0.97,2.57-1.75,3.76c-0.86,1.3-1.9,2.41-3.06,3.33l15.05,32.59
				C159.59,133.33,163.41,133.97,166.68,136.12z"/>
			<path class="st6" d="M137.58,201.24c0.1,1.86-0.17,3.75-0.82,5.56l21.98,14.49c1.41-1.31,3.04-2.3,4.79-2.95l-2.78-24.01
				L137.58,201.24z"/>
			<path class="st6" d="M172.28,152.93l21.97,14.49c1.41-1.31,3.04-2.3,4.79-2.95l-2.78-24.01l-23.16,6.9
				C173.19,149.23,172.93,151.12,172.28,152.93z"/>
			<path class="st6" d="M225.22,124.76c-0.1-1.86,0.17-3.75,0.82-5.57l-22.8-15.03c-1.21,1.13-2.59,2.03-4.07,2.67l2.88,24.83
				L225.22,124.76z"/>
			<path class="st6" d="M317.83,132.8l-20.32-36.92l-32-16.57l-24.03-2.76L212.57,51.7l-38.52-0.37l-18.16,16.09l-32.36-12.25
				L89.96,74.75L75.6,99.54l-32.48-0.31L9.1,136.85l-0.51,53.87l36.26,42.64l61.29,5.26l12.38-4.92l10.94,19.61l49.8,9.86
				l25.55,33.15l13.75,0.49l6.66-15.57l39.71,0.26l15.11-23.15l32.34-11.4l12.6-4.44l11.67-23.39l0.24-24.93l2.74-35.39
				L317.83,132.8z M278.96,188.67c-4.36,6.61-13.25,8.44-19.86,4.08c-3.49-2.3-5.63-5.86-6.25-9.68l-35.04-1.27
				c-0.39,1.39-0.99,2.74-1.83,4c-0.81,1.23-1.78,2.29-2.85,3.18l15.33,31.67c3.63-0.78,7.56-0.17,10.91,2.04
				c6.61,4.36,8.44,13.25,4.08,19.86c-4.36,6.61-13.25,8.44-19.86,4.08c-3.35-2.21-5.46-5.58-6.18-9.22l-35.14-1.6
				c-0.39,1.34-0.99,2.65-1.79,3.88c-4.36,6.61-13.25,8.44-19.86,4.08c-5.64-3.72-7.78-10.72-5.59-16.81l-21.98-14.49
				c-4.73,4.41-12.01,5.2-17.65,1.48c-6.61-4.36-8.44-13.25-4.08-19.86c0.86-1.3,1.9-2.41,3.06-3.33l-15.04-32.58
				c-3.56,0.7-7.39,0.06-10.66-2.09c-6.61-4.36-8.44-13.25-4.08-19.86c4.36-6.61,13.25-8.44,19.86-4.08
				c3.23,2.13,5.31,5.35,6.09,8.85l34.63,2.67c0.39-1.19,0.93-2.35,1.65-3.44c0.86-1.3,1.9-2.41,3.06-3.33l-15.05-32.59
				c-3.56,0.7-7.39,0.06-10.66-2.09c-6.61-4.36-8.44-13.25-4.08-19.86c4.36-6.61,13.25-8.44,19.86-4.08
				c3.38,2.23,5.5,5.65,6.19,9.34l33.67,1.79c0.39-1.24,0.94-2.44,1.69-3.58c4.36-6.61,13.25-8.44,19.86-4.08
				c5.64,3.72,7.78,10.72,5.59,16.81l22.8,15.03c4.73-4.41,12.02-5.2,17.65-1.48c6.61,4.36,8.44,13.25,4.08,19.86
				c-0.81,1.23-1.78,2.29-2.85,3.18l15.33,31.67c3.63-0.78,7.56-0.17,10.91,2.04C281.49,173.16,283.32,182.06,278.96,188.67z"/>
			<path class="st6" d="M231.63,136c-1.91-1.26-3.4-2.9-4.48-4.75l-24.3,7.24l2.92,25.19c2.12,0.26,4.22,0.99,6.13,2.25
				c3.31,2.18,5.42,5.5,6.16,9.09l35.32,1.28c0.39-1.18,0.92-2.33,1.64-3.42c0.81-1.23,1.78-2.29,2.85-3.18l-15.33-31.67
				C238.91,138.83,234.98,138.21,231.63,136z"/>
			<path class="st6" d="M196.12,189.88c-1.91-1.26-3.4-2.9-4.48-4.75l-24.3,7.24l2.92,25.19c2.12,0.26,4.22,0.99,6.13,2.25
				c3.35,2.21,5.46,5.58,6.18,9.22l35.14,1.6c0.39-1.34,0.99-2.65,1.79-3.87c0.81-1.23,1.78-2.29,2.85-3.18l-15.33-31.67
				C203.4,192.7,199.47,192.08,196.12,189.88z"/>
			<path class="st6" d="M190.52,173.07l-21.98-14.49c-1.41,1.31-3.04,2.3-4.79,2.95l2.78,24.01l23.16-6.9
				C189.61,176.77,189.87,174.88,190.52,173.07z"/>
		</g>
		<g>
			<path class="st13" d="M149.34,137.33c0.18-0.16,0.36-0.32,0.54-0.46l-0.59-1.27l-0.15,0.05L149.34,137.33z"/>
			<path class="st13" d="M158.74,221.29c1.41-1.31,3.04-2.3,4.79-2.95l-2.78-24.01l-23.16,6.9c0.1,1.86-0.17,3.75-0.82,5.56
				L158.74,221.29z"/>
			<path class="st13" d="M131.17,190c1.91,1.26,3.4,2.9,4.48,4.75l24.3-7.24l-2.92-25.19c-2.12-0.26-4.22-0.99-6.13-2.25
				c-1.94-1.28-3.44-2.95-4.52-4.84l-17.88,9.23l-12.51,13.65l4.52,9.79C124.07,187.21,127.9,187.84,131.17,190z"/>
			<path class="st13" d="M194.25,167.42c1.41-1.31,3.04-2.3,4.79-2.95l-2.78-24.01l-23.16,6.9c0.1,1.86-0.17,3.75-0.82,5.57
				L194.25,167.42z"/>
			<path class="st13" d="M110.16,196.21c0.32-0.73,0.69-1.44,1.14-2.13c0.86-1.3,1.9-2.41,3.06-3.33l-3.33-7.22l-1.91,2.08
				L110.16,196.21z"/>
			<path class="st13" d="M189.7,178.64c-0.1-1.86,0.17-3.75,0.82-5.57l-21.98-14.49c-1.41,1.31-3.04,2.3-4.79,2.95l2.78,24.01
				L189.7,178.64z"/>
			<path class="st13" d="M218.06,175.03l31.46,1.14l-6.83-14.04l-4.86,0.76l-21.58-7.41l-12.7-11.09l2.24,19.31
				c2.12,0.26,4.22,0.99,6.13,2.25C215.21,168.11,217.32,171.43,218.06,175.03z"/>
			<path class="st13" d="M267.27,217.4l-15.71-0.15l-16.94-8.83l18.38-24.59c-0.06-0.26-0.12-0.51-0.16-0.77l-35.04-1.27
				c-0.39,1.39-0.99,2.74-1.83,4c-0.81,1.23-1.78,2.29-2.85,3.18l15.33,31.67c3.63-0.78,7.56-0.17,10.91,2.04
				c6.61,4.36,8.44,13.25,4.08,19.86c-4.36,6.61-13.25,8.44-19.86,4.08c-3.35-2.21-5.46-5.58-6.18-9.22l-35.14-1.6
				c-0.39,1.34-0.99,2.65-1.79,3.88c-4.36,6.61-13.25,8.44-19.86,4.08c-5.64-3.72-7.78-10.72-5.59-16.81l-21.98-14.49
				c-4.73,4.41-12.01,5.2-17.65,1.48c-1.17-0.77-2.18-1.69-3.04-2.7l6.18,22.47l10.94,19.61l49.8,9.86l25.55,33.15l13.75,0.49
				l6.66-15.57l39.71,0.26l8.45-12.93l-18.93-20.19L267.27,217.4z"/>
			<path class="st13" d="M176.39,219.81c3.35,2.21,5.46,5.58,6.18,9.22l35.14,1.6c0.39-1.34,0.99-2.65,1.79-3.87
				c0.81-1.23,1.78-2.29,2.85-3.18l-15.33-31.67c-3.63,0.78-7.56,0.17-10.91-2.04c-1.91-1.26-3.4-2.9-4.48-4.75l-24.3,7.24
				l2.92,25.19C172.38,217.82,174.48,218.55,176.39,219.81z"/>
			<path class="st13" d="M171.16,140.87l21.74-6.48l-7.13-10.69l-29.99,9.79l0.25,0.54c3.56-0.7,7.39-0.06,10.66,2.09
				C168.59,137.38,170.09,139.02,171.16,140.87z"/>
		</g>
		<g>
			<path class="st7" d="M203.24,104.17c-1.21,1.13-2.59,2.03-4.07,2.67l2.88,24.83l23.16-6.9c-0.1-1.86,0.17-3.75,0.82-5.57
				L203.24,104.17z"/>
			<path class="st7" d="M194.25,167.42c1.41-1.31,3.04-2.3,4.79-2.95l-2.78-24.01l-23.16,6.9c0.1,1.86-0.17,3.75-0.82,5.57
				L194.25,167.42z"/>
			<path class="st7" d="M157.03,162.31c-2.12-0.26-4.22-0.99-6.13-2.25c-3.48-2.3-5.62-5.85-6.24-9.67l-34.24-2.64
				c-0.39,1.47-1,2.9-1.88,4.23c-0.86,1.3-1.9,2.41-3.06,3.33l15.04,32.58c3.56-0.7,7.39-0.06,10.66,2.09
				c1.91,1.26,3.4,2.9,4.48,4.75l24.3-7.24L157.03,162.31z"/>
			<path class="st7" d="M158.74,221.29c1.41-1.31,3.04-2.3,4.79-2.95l-2.78-24.01l-23.16,6.9c0.1,1.86-0.17,3.75-0.82,5.56
				L158.74,221.29z"/>
			<path class="st7" d="M171.16,140.87l24.3-7.24l-2.98-25.65c-2.38-0.16-4.76-0.92-6.9-2.33c-0.21-0.14-0.41-0.3-0.61-0.45
				l-0.16,17.06l-26.58-18.33l-15.21,1.95l13,28.15c3.56-0.7,7.39-0.06,10.66,2.09C168.59,137.38,170.09,139.02,171.16,140.87z"/>
			<path class="st7" d="M189.7,178.64c-0.1-1.86,0.17-3.75,0.82-5.57l-21.98-14.49c-1.41,1.31-3.04,2.3-4.79,2.95l2.78,24.01
				L189.7,178.64z"/>
			<path class="st7" d="M104.45,132.13c3.23,2.13,5.31,5.35,6.09,8.85l34.63,2.67c0.39-1.19,0.93-2.35,1.65-3.44
				c0.86-1.3,1.9-2.41,3.06-3.33l-13.89-30.09l-1.54,0.2l-12.97,6.37l-18.38,2.36l-2.39,14.67
				C102,130.77,103.26,131.35,104.45,132.13z"/>
			<path class="st7" d="M176.39,219.81c3.35,2.21,5.46,5.58,6.18,9.22l35.14,1.6c0.39-1.34,0.99-2.65,1.79-3.87
				c0.81-1.23,1.78-2.29,2.85-3.18l-15.33-31.67c-3.63,0.78-7.56,0.17-10.91-2.04c-1.91-1.26-3.4-2.9-4.48-4.75l-24.3,7.24
				l2.92,25.19C172.38,217.82,174.48,218.55,176.39,219.81z"/>
			<path class="st7" d="M285.09,217.57l-4.37-15.05l15.46-44.68l-32.04,0.98l-9.3-10.92l9.13,18.87c3.63-0.78,7.56-0.17,10.91,2.04
				c6.61,4.36,8.44,13.25,4.08,19.86s-13.25,8.44-19.86,4.08c-3.49-2.3-5.63-5.86-6.25-9.68l-35.04-1.27
				c-0.39,1.39-0.99,2.74-1.83,4c-0.81,1.23-1.78,2.29-2.85,3.18l15.33,31.67c3.63-0.78,7.56-0.17,10.91,2.04
				c6.61,4.36,8.44,13.25,4.08,19.86c-4.36,6.61-13.25,8.44-19.86,4.08c-3.35-2.21-5.46-5.58-6.18-9.22l-35.14-1.6
				c-0.39,1.34-0.99,2.65-1.79,3.88c-4.36,6.61-13.25,8.44-19.86,4.08c-5.64-3.72-7.78-10.72-5.59-16.81l-21.98-14.49
				c-4.73,4.41-12.01,5.2-17.65,1.48c-6.61-4.36-8.44-13.25-4.08-19.86c0.86-1.3,1.9-2.41,3.06-3.33l-15.04-32.58
				c-3.56,0.7-7.39,0.06-10.66-2.09c-4.11-2.71-6.37-7.17-6.44-11.75l-15.68,23.09l0.86,35.06l23.78-2.31l5.7,2.02l-2.49,11.59
				l-16.12,22.45l27.87,2.38l12.38-4.92l10.94,19.61l49.8,9.86l25.55,33.15l13.75,0.49l6.66-15.57l39.71,0.26l15.11-23.15
				l32.34-11.4L285.09,217.57z"/>
			<path class="st7" d="M200.94,81.45c0.14,0.09,0.29,0.16,0.43,0.26c5.64,3.72,7.78,10.72,5.59,16.81l22.8,15.03
				c1.62-1.51,3.54-2.58,5.59-3.21l-1.1-0.23L238.05,89L200.94,81.45z"/>
			<path class="st7" d="M218.06,175.03l35.32,1.28c0.39-1.18,0.92-2.33,1.64-3.42c0.81-1.23,1.78-2.29,2.85-3.18l-15.33-31.67
				c-3.63,0.78-7.56,0.17-10.91-2.04c-1.91-1.26-3.4-2.9-4.48-4.75l-24.3,7.24l2.92,25.19c2.12,0.26,4.22,0.99,6.13,2.25
				C215.21,168.11,217.32,171.43,218.06,175.03z"/>
			<path class="st7" d="M248.79,113.1c5.46,4.62,6.74,12.7,2.71,18.82c-0.81,1.23-1.78,2.29-2.85,3.18l2.49,5.14l10.72-24.45
				L248.79,113.1z"/>
		</g>
		<g>
			<path class="st8" d="M149.34,137.33c0.18-0.16,0.36-0.32,0.54-0.46l-0.59-1.27l-0.15,0.05L149.34,137.33z"/>
			<path class="st8" d="M158.74,221.29c1.41-1.31,3.04-2.3,4.79-2.95l-2.78-24.01l-23.16,6.9c0.1,1.86-0.17,3.75-0.82,5.56
				L158.74,221.29z"/>
			<path class="st8" d="M131.17,190c1.91,1.26,3.4,2.9,4.48,4.75l24.3-7.24l-2.92-25.19c-2.12-0.26-4.22-0.99-6.13-2.25
				c-1.94-1.28-3.44-2.95-4.52-4.84l-17.88,9.23l-12.51,13.65l4.52,9.79C124.07,187.21,127.9,187.84,131.17,190z"/>
			<path class="st8" d="M194.25,167.42c1.41-1.31,3.04-2.3,4.79-2.95l-2.78-24.01l-23.16,6.9c0.1,1.86-0.17,3.75-0.82,5.57
				L194.25,167.42z"/>
			<path class="st8" d="M110.16,196.21c0.32-0.73,0.69-1.44,1.14-2.13c0.86-1.3,1.9-2.41,3.06-3.33l-3.33-7.22l-1.91,2.08
				L110.16,196.21z"/>
			<path class="st8" d="M189.7,178.64c-0.1-1.86,0.17-3.75,0.82-5.57l-21.98-14.49c-1.41,1.31-3.04,2.3-4.79,2.95l2.78,24.01
				L189.7,178.64z"/>
			<path class="st8" d="M218.06,175.03l31.46,1.14l-6.83-14.04l-4.86,0.76l-21.58-7.41l-12.7-11.09l2.24,19.31
				c2.12,0.26,4.22,0.99,6.13,2.25C215.21,168.11,217.32,171.43,218.06,175.03z"/>
			<path class="st8" d="M267.27,217.4l-15.71-0.15l-16.94-8.83l18.38-24.59c-0.06-0.26-0.12-0.51-0.16-0.77l-35.04-1.27
				c-0.39,1.39-0.99,2.74-1.83,4c-0.81,1.23-1.78,2.29-2.85,3.18l15.33,31.67c3.63-0.78,7.56-0.17,10.91,2.04
				c6.61,4.36,8.44,13.25,4.08,19.86c-4.36,6.61-13.25,8.44-19.86,4.08c-3.35-2.21-5.46-5.58-6.18-9.22l-35.14-1.6
				c-0.39,1.34-0.99,2.65-1.79,3.88c-4.36,6.61-13.25,8.44-19.86,4.08c-5.64-3.72-7.78-10.72-5.59-16.81l-21.98-14.49
				c-4.73,4.41-12.01,5.2-17.65,1.48c-1.17-0.77-2.18-1.69-3.04-2.7l6.18,22.47l10.94,19.61l49.8,9.86l25.55,33.15l13.75,0.49
				l6.66-15.57l39.71,0.26l8.45-12.93l-18.93-20.19L267.27,217.4z"/>
			<path class="st8" d="M176.39,219.81c3.35,2.21,5.46,5.58,6.18,9.22l35.14,1.6c0.39-1.34,0.99-2.65,1.79-3.87
				c0.81-1.23,1.78-2.29,2.85-3.18l-15.33-31.67c-3.63,0.78-7.56,0.17-10.91-2.04c-1.91-1.26-3.4-2.9-4.48-4.75l-24.3,7.24
				l2.92,25.19C172.38,217.82,174.48,218.55,176.39,219.81z"/>
			<path class="st8" d="M171.16,140.87l21.74-6.48l-7.13-10.69l-29.99,9.79l0.25,0.54c3.56-0.7,7.39-0.06,10.66,2.09
				C168.59,137.38,170.09,139.02,171.16,140.87z"/>
		</g>
	</g>
</g>
</svg>
